HIERARCHY
ROOT Hips
{
	OFFSET 0.000000 0.000000 0.000000
	CHANNELS 6 Xposition Yposition Zposition Xrotation Yrotation Zrotation
	JOINT LeftUpLeg_virtual
	{
		OFFSET 0.000000 0.000000 0.000000
		CHANNELS 3 Xrotation Yrotation Zrotation
		JOINT LeftUpLeg
		{
			OFFSET 13.026900 -6.336304 -1.092800
			CHANNELS 3 Xrotation Yrotation Zrotation
			JOINT LeftLeg
			{
				OFFSET 0.524474 -46.096886 9.782700
				CHANNELS 3 Xrotation Yrotation Zrotation
				JOINT LeftFoot
				{
					OFFSET -0.524474 -53.427422 -12.948200
					CHANNELS 3 Xrotation Yrotation Zrotation
					JOINT LeftToeBase
					{
						OFFSET 0.192200 -14.009700 16.364100
						CHANNELS 3 Xrotation Yrotation Zrotation
						JOINT LeftToe_End
						{
							OFFSET -1.784700 -0.561700 9.474800
							CHANNELS 3 Xrotation Yrotation Zrotation
							End Site
							{
								OFFSET 0 0 0
							}
						}
					}
				}
			}
		}
	}
	JOINT RightUpLeg_virtual
	{
		OFFSET 0.000000 0.000000 0.000000
		CHANNELS 3 Xrotation Yrotation Zrotation
		JOINT RightUpLeg
		{
			OFFSET -12.883000 -6.336304 -1.092800
			CHANNELS 3 Xrotation Yrotation Zrotation
			JOINT RightLeg
			{
				OFFSET -0.524587 -46.096825 9.782800
				CHANNELS 3 Xrotation Yrotation Zrotation
				JOINT RightFoot
				{
					OFFSET 0.524587 -53.427383 -12.948300
					CHANNELS 3 Xrotation Yrotation Zrotation
					JOINT RightToeBase
					{
						OFFSET -0.192200 -14.009700 16.364100
						CHANNELS 3 Xrotation Yrotation Zrotation
						JOINT RightToe_End
						{
							OFFSET 1.784700 -0.561700 9.474800
							CHANNELS 3 Xrotation Yrotation Zrotation
							End Site
							{
								OFFSET 0 0 0
							}
						}
					}
				}
			}
		}
	}
	JOINT Spine_virtual
	{
		OFFSET 0.000000 0.000000 0.000000
		CHANNELS 3 Xrotation Yrotation Zrotation
		JOINT Spine
		{
			OFFSET 0.072000 7.257294 -0.789700
			CHANNELS 3 Xrotation Yrotation Zrotation
			JOINT Spine1
			{
				OFFSET 0.000000 12.508769 -0.658067
				CHANNELS 3 Xrotation Yrotation Zrotation
				JOINT Spine1_split
				{
					OFFSET 0.000000 12.508769 -0.658067
					CHANNELS 3 Xrotation Yrotation Zrotation
					JOINT Spine2
					{
						OFFSET 0.000000 12.508769 -0.658067
						CHANNELS 3 Xrotation Yrotation Zrotation
						JOINT Neck_virtual
						{
							OFFSET 0.000000 0.000000 0.000000
							CHANNELS 3 Xrotation Yrotation Zrotation
							JOINT Neck
							{
								OFFSET 0.000000 14.033295 7.520400
								CHANNELS 3 Xrotation Yrotation Zrotation
								JOINT Head
								{
									OFFSET 0.000000 8.198502 5.703100
									CHANNELS 3 Xrotation Yrotation Zrotation
									JOINT HeadTop_End
									{
										OFFSET 0.000000 17.760803 13.332701
										CHANNELS 3 Xrotation Yrotation Zrotation
										End Site
										{
											OFFSET 0 0 0
										}
									}
								}
							}
						}
						JOINT LeftShoulder_virtual
						{
							OFFSET 0.000000 0.000000 0.000000
							CHANNELS 3 Xrotation Yrotation Zrotation
							JOINT LeftShoulder
							{
								OFFSET 6.292450 5.785301 -0.669000
								CHANNELS 3 Xrotation Yrotation Zrotation
								JOINT LeftShoulder_split
								{
									OFFSET 6.292450 5.785301 -0.669000
									CHANNELS 3 Xrotation Yrotation Zrotation
									JOINT LeftArm
									{
										OFFSET 13.907140 -6.093903 1.965100
										CHANNELS 3 Xrotation Yrotation Zrotation
										JOINT LeftForeArm
										{
											OFFSET 34.140198 0.000000 0.000000
											CHANNELS 3 Xrotation Yrotation Zrotation
											JOINT LeftHand
											{
												OFFSET 40.960209 0.000000 0.000000
												CHANNELS 3 Xrotation Yrotation Zrotation
												End Site
												{
													OFFSET 0 0 0
												}
											}
										}
									}
								}
							}
						}
						JOINT RightShoulder_virtual
						{
							OFFSET 0.000000 0.000000 0.000000
							CHANNELS 3 Xrotation Yrotation Zrotation
							JOINT RightShoulder
							{
								OFFSET -6.292450 5.785301 -0.669000
								CHANNELS 3 Xrotation Yrotation Zrotation
								JOINT RightShoulder_split
								{
									OFFSET -6.292450 5.785301 -0.669000
									CHANNELS 3 Xrotation Yrotation Zrotation
									JOINT RightArm
									{
										OFFSET -13.907140 -6.093903 1.965100
										CHANNELS 3 Xrotation Yrotation Zrotation
										JOINT RightForeArm
										{
											OFFSET -34.140198 0.000000 0.000000
											CHANNELS 3 Xrotation Yrotation Zrotation
											JOINT RightHand
											{
												OFFSET -40.960209 0.000000 0.000000
												CHANNELS 3 Xrotation Yrotation Zrotation
												End Site
												{
													OFFSET 0 0 0
												}
											}
										}
									}
								}
							}
						}
					}
				}
			}
		}
	}
}
MOTION
Frames: 5
Frame Time: 0.03333333
-1.693364 281.240051 -32.985168 0.000000 0.000000 0.000000 -3.292055 2.715022 6.031792 -72.899046 27.135542 25.230644 79.583001 -7.262213 4.784489 9.354776 13.755182 -5.343102 1.855744 2.558226 -0.694538 0.000000 0.000000 0.000000 0.999313 2.048122 4.969346 -79.935090 7.452093 -18.794121 89.659538 7.140228 -4.545570 20.090247 -10.710317 27.356241 11.969253 -7.475972 -9.592704 0.000000 0.000000 0.000000 -2.742183 6.123234 2.414401 8.305266 0.031570 4.657471 17.467288 -2.758646 0.030309 0.112782 0.401989 0.017397 0.000000 0.000000 0.000000 22.762710 -1.062689 -0.187417 -11.626815 12.580675 -5.948096 -9.458302 -31.287307 -20.568138 0.000000 0.000000 0.000000 19.497045 -2.508471 -2.211149 8.401782 -25.321478 25.502314 6.988793 -0.318949 -2.388575 -67.622431 -25.577788 8.694436 0.487596 -50.697496 19.061113 0.000000 0.000000 0.000000 21.768882 -1.102845 0.216391 2.849887 15.462558 -20.150921 12.486992 5.531697 2.279127 -82.693742 36.631315 20.667869 -41.739925 40.651005 12.283837 0.000000 0.000000 0.000000 
-0.414943 282.976410 -34.328384 0.000000 0.000000 0.000000 -4.591096 0.055126 5.160745 -78.169664 26.253903 27.852152 81.546701 -8.198891 5.694015 9.413777 10.963325 -6.404592 0.806223 2.375711 -0.099092 0.000000 0.000000 0.000000 -0.282225 0.652421 3.883952 -81.619155 5.785714 -15.732518 85.232906 7.631919 -4.068695 17.139103 -10.569514 24.600740 11.412512 -7.736070 -10.891000 0.000000 0.000000 0.000000 -3.648245 4.389959 2.301586 8.515601 0.345990 3.478933 20.220545 -2.857050 0.754340 0.135393 0.428375 -0.021300 0.000000 0.000000 0.000000 25.313362 -1.045745 0.028850 -11.914438 13.268915 -6.172640 -6.050671 -29.280338 -17.325705 0.000000 0.000000 0.000000 22.270122 -2.618015 -1.662839 9.836229 -24.911073 29.557118 8.798371 -1.276721 -2.554567 -71.173153 -20.473186 9.389583 -1.203405 -46.497418 20.748076 0.000000 0.000000 0.000000 24.386531 -1.079399 0.540267 4.776384 16.459854 -23.450795 13.578737 4.587934 2.565466 -95.169336 34.322179 27.034925 -42.302435 37.127809 10.530838 0.000000 0.000000 0.000000 
0.950445 284.688782 -35.258614 0.000000 0.000000 0.000000 -5.297075 -1.384771 4.509118 -81.039983 26.315759 28.636543 77.797426 -10.227521 6.618419 11.423758 6.685809 -8.480766 -0.005223 2.053443 0.945534 0.000000 0.000000 0.000000 -1.081368 -0.409603 3.266433 -80.392979 3.340255 -12.931381 74.928541 8.299974 -3.426866 14.677356 -8.699351 21.158594 11.252812 -7.741163 -11.930173 0.000000 0.000000 0.000000 -3.527070 3.146609 2.421752 7.246471 0.819511 2.521630 22.549692 -2.900810 1.477109 0.162850 0.340392 0.025357 0.000000 0.000000 0.000000 27.552213 -0.923356 0.468696 -11.650418 13.887403 -6.597228 -3.687213 -27.384443 -15.010333 0.000000 0.000000 0.000000 24.601032 -2.600680 -0.922072 10.565521 -23.646316 32.079240 9.373306 -1.738230 -3.136356 -75.063745 -17.615657 8.708638 -3.187740 -40.706039 21.362368 0.000000 0.000000 0.000000 26.506287 -1.020433 1.019102 6.596807 17.448403 -26.001758 15.390578 3.123450 2.828183 -104.126384 33.525017 28.963793 -42.101580 32.984305 9.326955 0.000000 0.000000 0.000000 
2.161403 285.967010 -35.566330 0.000000 0.000000 0.000000 -5.346850 -1.638115 4.261957 -81.292420 27.537656 27.781292 68.868599 -13.213002 6.972718 14.263810 1.708573 -10.417898 -0.967760 1.642703 2.258935 0.000000 0.000000 0.000000 -1.756725 -1.550243 3.374061 -78.341600 1.283190 -10.853656 60.290647 10.179442 -2.911377 14.871437 -4.183765 18.752153 12.188673 -7.514139 -12.689497 0.000000 0.000000 0.000000 -2.777296 2.524361 2.739525 5.161032 1.362163 1.828744 24.337175 -2.962960 2.065056 0.141187 0.334485 -0.034345 0.000000 0.000000 0.000000 29.241508 -0.799182 0.994735 -10.986081 14.298699 -7.081928 -2.496918 -26.206065 -13.484183 0.000000 0.000000 0.000000 26.359105 -2.506628 -0.199646 10.663385 -21.467238 33.487284 9.808763 -1.854433 -2.818360 -78.481073 -17.224861 7.983588 -6.469815 -32.486381 19.965671 0.000000 0.000000 0.000000 27.923903 -1.052786 1.540315 8.318658 18.241484 -28.435841 17.374417 1.379086 3.126607 -108.705650 35.226721 26.927807 -41.388054 28.569677 8.581965 0.000000 0.000000 0.000000 
3.040049 286.124817 -35.208138 0.000000 0.000000 0.000000 -5.245407 -0.945049 4.521344 -79.794764 29.603905 25.968355 57.540553 -16.314890 6.375389 16.678386 -2.657734 -10.683740 -1.357606 1.189680 3.293666 0.000000 0.000000 0.000000 -2.103526 -2.282687 3.951790 -75.801405 -0.551478 -9.230585 43.701306 12.682136 -2.305008 15.395883 1.339071 16.666143 11.530807 -6.880270 -13.842075 0.000000 0.000000 0.000000 -2.219089 2.418006 3.291476 3.091114 1.906223 1.418234 25.508760 -3.045724 2.420208 0.062794 0.322569 -0.045229 0.000000 0.000000 0.000000 30.164636 -0.728333 1.422496 -10.012044 14.396026 -7.497597 -2.123209 -25.723466 -12.427007 0.000000 0.000000 0.000000 27.504955 -2.429272 0.338977 10.291862 -18.449272 34.500494 10.316979 -1.239724 -2.335198 -80.316707 -18.910746 8.226650 -11.035797 -22.474065 16.624539 0.000000 0.000000 0.000000 28.594237 -1.186508 1.923388 9.903191 18.865664 -30.922858 19.134783 -0.045673 2.848911 -108.996801 37.974592 21.709708 -40.731488 25.103221 8.448094 0.000000 0.000000 0.000000 
